<svg width="40" height="25" viewBox="0 0 40 25" fill="none" xmlns="http://www.w3.org/2000/svg">
<path d="M1.23457 24.5503H15.1675C15.1675 24.5503 12.5044 12.3986 21.3228 7.47795C23.2451 6.54321 29.3651 3.05115 39.3827 10.4586C39.7002 10.194 40 9.98236 40 9.98236C40 9.98236 30.8289 0.828924 20.6173 1.85185C15.485 2.31041 9.17108 6.98413 5.46737 13.157C1.76367 19.3298 1.23457 24.5503 1.23457 24.5503ZM30.2645 2.83951L30.3351 1.65785C30.1764 1.56966 29.7354 1.35802 28.6243 1.04056L28.5538 2.20459C29.1358 2.39859 29.7002 2.61023 30.2645 2.83951ZM28.5891 6.57848L28.5185 7.68959C29.1005 7.70723 29.6825 7.77778 30.2645 7.90123L30.3351 6.80776C29.7354 6.6843 29.1534 6.61376 28.5891 6.57848ZM22.0635 1.07584H22.2399L21.8871 0C21.3404 0 20.776 0.0352734 20.194 0.10582L20.5291 1.14638C21.0406 1.09347 21.552 1.07584 22.0635 1.07584ZM22.9101 7.56614L23.3157 8.78307C23.8272 8.53616 24.3386 8.32452 24.8501 8.16578L24.4621 7.00176C23.8624 7.17813 23.351 7.37213 22.9101 7.56614ZM14.903 2.92769L14.1093 1.71076C13.6684 1.94004 13.2099 2.18695 12.7337 2.46914L13.545 3.7037C14.0035 3.42152 14.4444 3.15697 14.903 2.92769ZM18.5185 10.8642L19.3651 12.134C19.6649 11.6931 20.0176 11.2875 20.4056 10.8818L19.612 9.68254C19.2063 10.0529 18.836 10.4586 18.5185 10.8642ZM15.9612 16.5432L17.3898 17.672C17.4603 16.9841 17.5838 16.2963 17.7601 15.6085L16.4903 14.6032C16.261 15.2557 16.1023 15.9083 15.9612 16.5432ZM8.23633 8.16578L6.98413 7.07231C6.52557 7.51323 6.08466 7.95414 5.67901 8.39506L7.03704 9.55908C7.40741 9.08289 7.81305 8.6067 8.23633 8.16578ZM2.91005 16.0494L0.881834 15.3086C0.546737 16.067 0.176367 16.9489 0 17.425L2.02822 18.1658C2.2575 17.5661 2.62787 16.7019 2.91005 16.0494ZM15.6966 21.0229C15.7319 21.9577 15.8201 22.716 15.9083 23.2452L18.0247 24.0035C17.866 23.3157 17.7072 22.5397 17.6014 21.7108L15.6966 21.0229Z" fill="#CC0000"/>
</svg>
